<?xml version="1.0" encoding="utf-8"?>
<!-- Generator: Adobe Illustrator 22.0.1, SVG Export Plug-In . SVG Version: 6.00 Build 0)  -->
<svg version="1.1" id="Layer_1" xmlns="http://www.w3.org/2000/svg" xmlns:xlink="http://www.w3.org/1999/xlink" x="0px" y="0px"
	 viewBox="0 0 168.4 27.2" style="enable-background:new 0 0 168.4 27.2;" xml:space="preserve">
<style type="text/css">
	.st0{fill:#F42561;}
</style>
<g>
	<path d="M35.9,1.1h12.9c1.6,0,2.9,0.2,4.1,0.6C54,2.1,55,2.6,55.7,3.4c0.5,0.5,0.9,1.1,1.2,1.8s0.4,1.4,0.4,2.3v0.1
		c0,1.5-0.4,2.6-1.1,3.5c-0.7,0.9-1.7,1.6-2.8,2.1c1.5,0.5,2.8,1.2,3.7,2.2c0.9,0.9,1.4,2.3,1.4,4v0.1c0,2.2-0.8,3.9-2.5,5.1
		s-4,1.8-7,1.8H36V1.1H35.9z M47.1,11.2c1.1,0,1.9-0.2,2.5-0.5c0.6-0.4,0.8-0.9,0.8-1.7V8.9c0-0.7-0.3-1.2-0.8-1.6s-1.3-0.6-2.4-0.6
		h-4.5v4.4L47.1,11.2L47.1,11.2z M48.1,20.7c1.1,0,1.9-0.2,2.5-0.6s0.9-1,0.9-1.7v-0.1c0-0.7-0.3-1.2-0.8-1.7
		c-0.6-0.4-1.4-0.6-2.6-0.6h-5.3v4.6h5.3V20.7z"/>
	<path d="M61.6,1.1h11.9c1.9,0,3.6,0.2,4.9,0.7s2.4,1.2,3.3,2C83.3,5.3,84,7.2,84,9.7v0.1c0,1.9-0.5,3.6-1.4,4.8
		c-0.9,1.3-2.2,2.2-3.8,2.9l6,8.8h-8.1l-5.1-7.6h-0.1h-3v7.6h-7L61.6,1.1L61.6,1.1z M73.2,13.2c1.2,0,2.1-0.3,2.8-0.8
		c0.6-0.5,1-1.3,1-2.2v-0.1c0-1-0.3-1.8-1-2.3s-1.6-0.7-2.8-0.7h-4.6v6h4.6V13.2z"/>
	<path d="M96.2,0.9h6.7l10.7,25.4h-7.5l-1.8-4.5h-9.7l-1.8,4.5h-7.3L96.2,0.9z M102.4,16.4l-2.8-7.2l-2.8,7.2H102.4z"/>
	<path d="M116.1,1.1h6.5L133,14.4V1.1h6.9v25.2h-6.1L123,12.5v13.8h-6.9V1.1z"/>
	<path d="M144.4,1.1h9.7c2.3,0,4.3,0.3,6,0.9c1.8,0.6,3.3,1.5,4.5,2.6s2.1,2.4,2.8,3.9c0.6,1.5,1,3.2,1,5v0.1c0,1.8-0.3,3.5-1,5.1
		c-0.6,1.5-1.6,2.9-2.8,4s-2.7,2-4.5,2.6s-3.8,1-6.1,1h-9.6L144.4,1.1L144.4,1.1z M154.2,20.1c2.1,0,3.8-0.6,5.1-1.7
		s1.9-2.7,1.9-4.7v-0.1c0-2-0.6-3.6-1.9-4.7c-1.3-1.1-3-1.7-5.1-1.7h-2.9V20h2.9V20.1z"/>
</g>
<g>
	<path class="st0" d="M2.3,6c-3.6,5.3-3,12.6,1.7,17.3s12,5.2,17.3,1.7L2.3,6z"/>
	<path class="st0" d="M24.8,21.4C28.5,16.1,28,8.7,23.3,4S11.2-1.3,5.9,2.4L24.8,21.4z"/>
</g>
</svg>
