<?xml version="1.0" encoding="utf-8"?>
<!-- Generator: Adobe Illustrator 22.0.1, SVG Export Plug-In . SVG Version: 6.00 Build 0)  -->
<svg version="1.1" id="Layer_1" xmlns="http://www.w3.org/2000/svg" xmlns:xlink="http://www.w3.org/1999/xlink" x="0px" y="0px"
	 viewBox="0 0 239 27.3" style="enable-background:new 0 0 239 27.3;" xml:space="preserve">
<style type="text/css">
	.st0{fill:#F42561;}
</style>
<g>
	<path class="st0" d="M2.3,6c-3.6,5.3-3,12.6,1.7,17.3s12,5.2,17.3,1.7L2.3,6z"/>
	<path class="st0" d="M24.8,21.4C28.5,16.1,28,8.7,23.3,4S11.2-1.3,5.9,2.4L24.8,21.4z"/>
</g>
<g>
	<path d="M43.4,2h6l9.5,12.2V2h6.3v23.1h-5.6l-9.9-12.7v12.7h-6.3V2z"/>
	<path d="M69.3,2h18.6v5.4H75.6V11h11.1V16H75.6v3.7h12.4v5.4H69.3V2z"/>
	<path d="M102.5,25.6c-1.7,0-3.2-0.3-4.7-0.9c-1.5-0.6-2.7-1.4-3.8-2.5c-1.1-1.1-1.9-2.3-2.5-3.8s-0.9-3.1-0.9-4.8v-0.1
		c0-1.7,0.3-3.2,0.9-4.7c0.6-1.5,1.5-2.7,2.5-3.8c1.1-1.1,2.4-1.9,3.8-2.6c1.5-0.6,3.1-0.9,4.9-0.9c1.2,0,2.3,0.1,3.2,0.3
		s1.9,0.6,2.7,1c0.8,0.4,1.5,0.9,2.2,1.5c0.6,0.6,1.2,1.2,1.7,1.9l-4.8,3.7c-0.7-0.8-1.4-1.5-2.2-2c-0.8-0.5-1.8-0.7-2.9-0.7
		c-0.8,0-1.6,0.2-2.2,0.5c-0.7,0.3-1.2,0.8-1.7,1.3c-0.5,0.6-0.9,1.2-1.1,1.9c-0.3,0.7-0.4,1.5-0.4,2.4v0.1c0,0.9,0.1,1.7,0.4,2.4
		c0.3,0.8,0.7,1.4,1.1,2c0.5,0.6,1.1,1,1.7,1.3c0.7,0.3,1.4,0.5,2.2,0.5c0.6,0,1.1-0.1,1.6-0.2s0.9-0.3,1.4-0.6
		c0.4-0.3,0.8-0.5,1.2-0.9c0.4-0.3,0.7-0.7,1.1-1.1l4.8,3.4c-0.6,0.7-1.2,1.4-1.8,2.1s-1.4,1.2-2.2,1.7c-0.8,0.5-1.8,0.8-2.8,1.1
		C104.9,25.5,103.8,25.6,102.5,25.6z"/>
	<path d="M124.5,25.6c-2.1,0-4-0.3-5.9-1c-1.9-0.6-3.5-1.6-4.9-2.9l3.6-4.3c2.3,1.8,4.8,2.8,7.5,2.8c0.9,0,1.5-0.1,2-0.4
		c0.5-0.3,0.7-0.7,0.7-1.2v-0.1c0-0.2-0.1-0.5-0.2-0.6c-0.1-0.2-0.3-0.4-0.6-0.5s-0.7-0.3-1.2-0.5c-0.5-0.2-1.1-0.3-1.9-0.5
		c-1.2-0.3-2.4-0.6-3.4-0.9c-1.1-0.3-2-0.8-2.8-1.3c-0.8-0.5-1.4-1.2-1.8-2s-0.7-1.8-0.7-3V9c0-1.1,0.2-2.1,0.6-3
		c0.4-0.9,1-1.7,1.8-2.3c0.8-0.7,1.7-1.2,2.8-1.5c1.1-0.4,2.3-0.5,3.7-0.5c2,0,3.7,0.3,5.3,0.8c1.6,0.5,3,1.3,4.2,2.3l-3.2,4.5
		c-1.1-0.7-2.1-1.3-3.3-1.7c-1.1-0.4-2.2-0.6-3.2-0.6c-0.8,0-1.3,0.1-1.7,0.4c-0.4,0.3-0.6,0.6-0.6,1.1v0.1c0,0.3,0.1,0.5,0.2,0.7
		c0.1,0.2,0.3,0.4,0.6,0.5c0.3,0.2,0.7,0.3,1.2,0.5c0.5,0.2,1.2,0.3,2,0.5c1.3,0.3,2.5,0.6,3.6,1c1.1,0.4,2,0.9,2.7,1.4
		c0.7,0.5,1.3,1.2,1.7,2c0.4,0.8,0.6,1.7,0.6,2.8V18c0,1.2-0.2,2.2-0.7,3.2s-1.1,1.7-1.9,2.4s-1.8,1.1-2.9,1.5
		C127.2,25.4,125.9,25.6,124.5,25.6z"/>
	<path d="M142.6,7.7h-6.9V2H156v5.6H149v17.5h-6.4V7.7z"/>
	<path d="M166.8,1.9h6.2l9.8,23.3h-6.9l-1.7-4.1h-8.9l-1.7,4.1h-6.7L166.8,1.9z M172.4,16.1l-2.6-6.6l-2.6,6.6H172.4z"/>
	<path d="M190.7,7.7h-6.9V2H204v5.6h-6.9v17.5h-6.4V7.7z"/>
	<path d="M207,2h6.4v23.1H207V2z"/>
	<path d="M228.8,25.6c-1.7,0-3.2-0.3-4.7-0.9c-1.5-0.6-2.7-1.4-3.8-2.5c-1.1-1.1-1.9-2.3-2.5-3.8c-0.6-1.5-0.9-3.1-0.9-4.8v-0.1
		c0-1.7,0.3-3.2,0.9-4.7c0.6-1.5,1.5-2.7,2.5-3.8c1.1-1.1,2.4-1.9,3.8-2.6c1.5-0.6,3.1-0.9,4.9-0.9c1.2,0,2.3,0.1,3.2,0.3
		s1.9,0.6,2.7,1c0.8,0.4,1.5,0.9,2.2,1.5c0.6,0.6,1.2,1.2,1.7,1.9l-4.8,3.7c-0.7-0.8-1.4-1.5-2.2-2c-0.8-0.5-1.8-0.7-2.9-0.7
		c-0.8,0-1.6,0.2-2.2,0.5c-0.7,0.3-1.2,0.8-1.7,1.3c-0.5,0.6-0.9,1.2-1.1,1.9c-0.3,0.7-0.4,1.5-0.4,2.4v0.1c0,0.9,0.1,1.7,0.4,2.4
		c0.3,0.8,0.7,1.4,1.1,2c0.5,0.6,1.1,1,1.7,1.3c0.7,0.3,1.4,0.5,2.2,0.5c0.6,0,1.1-0.1,1.6-0.2s0.9-0.3,1.4-0.6
		c0.4-0.3,0.8-0.5,1.2-0.9c0.4-0.3,0.7-0.7,1.1-1.1l4.8,3.4c-0.6,0.7-1.2,1.4-1.8,2.1s-1.4,1.2-2.2,1.7c-0.8,0.5-1.8,0.8-2.8,1.1
		C231.2,25.5,230,25.6,228.8,25.6z"/>
</g>
</svg>
