<?xml version="1.0" encoding="utf-8"?>
<!-- Generator: Adobe Illustrator 22.0.1, SVG Export Plug-In . SVG Version: 6.00 Build 0)  -->
<svg version="1.1" id="Layer_1" xmlns="http://www.w3.org/2000/svg" xmlns:xlink="http://www.w3.org/1999/xlink" x="0px" y="0px"
	 viewBox="0 0 217.4 27.3" style="enable-background:new 0 0 217.4 27.3;" xml:space="preserve">
<style type="text/css">
	.st0{fill:#F42561;}
</style>
<g>
	<path class="st0" d="M2.3,6c-3.6,5.3-3,12.6,1.7,17.3s12,5.2,17.3,1.7L2.3,6z"/>
	<path class="st0" d="M24.8,21.4C28.5,16.1,28,8.7,23.3,4S11.2-1.3,5.9,2.4L24.8,21.4z"/>
</g>
<g>
	<path d="M41.4,2h6.1l9.6,12.3V2h6.4v23.4h-5.7l-10-12.8v12.8h-6.4V2z"/>
	<path d="M67.6,2h18.8v5.5H73.9V11h11.2v5.1H73.9v3.7h12.5v5.5H67.6V2z"/>
	<path d="M96.1,13.5L88.5,2h7.4l4.1,6.6l4.2-6.6h7.3l-7.7,11.4l8,11.9h-7.4l-4.5-7l-4.5,7h-7.3L96.1,13.5z"/>
	<path d="M120,7.6h-7V2h20.5v5.7h-7v17.7H120V7.6z"/>
	<path d="M144.4,1.8h6.2l9.9,23.5h-6.9l-1.7-4.2h-9l-1.7,4.2h-6.8L144.4,1.8z M150,16.2l-2.6-6.6l-2.6,6.6H150z"/>
	<path d="M168.5,7.6h-7V2H182v5.7h-7v17.7h-6.5V7.6z"/>
	<path d="M185,2h6.5v23.4H185V2z"/>
	<path d="M207,25.8c-1.7,0-3.2-0.3-4.7-0.9c-1.5-0.6-2.7-1.4-3.8-2.5c-1.1-1.1-1.9-2.4-2.6-3.8c-0.6-1.5-1-3.1-1-4.8v-0.1
		c0-1.7,0.3-3.3,0.9-4.8s1.5-2.8,2.6-3.9c1.1-1.1,2.4-2,3.9-2.6c1.5-0.6,3.1-0.9,4.9-0.9c1.2,0,2.3,0.1,3.3,0.4c1,0.2,1.9,0.6,2.7,1
		c0.8,0.4,1.5,1,2.2,1.6c0.7,0.6,1.2,1.3,1.8,2l-4.9,3.8c-0.7-0.8-1.4-1.5-2.2-2c-0.8-0.5-1.8-0.7-2.9-0.7c-0.8,0-1.6,0.2-2.3,0.5
		c-0.7,0.3-1.3,0.8-1.8,1.3c-0.5,0.6-0.9,1.2-1.2,2c-0.3,0.8-0.4,1.6-0.4,2.4v0.1c0,0.9,0.1,1.7,0.4,2.5c0.3,0.8,0.7,1.4,1.2,2
		c0.5,0.6,1.1,1,1.8,1.3c0.7,0.3,1.4,0.5,2.3,0.5c0.6,0,1.2-0.1,1.7-0.2c0.5-0.1,1-0.3,1.4-0.6c0.4-0.3,0.8-0.6,1.2-0.9
		c0.4-0.3,0.7-0.7,1.1-1.2l4.9,3.5c-0.6,0.8-1.2,1.5-1.8,2.1c-0.7,0.6-1.4,1.2-2.2,1.7c-0.8,0.5-1.8,0.8-2.8,1.1
		C209.5,25.7,208.3,25.8,207,25.8z"/>
</g>
</svg>
